<svg width="24" height="24" viewBox="0 0 24 24" fill="none" xmlns="http://www.w3.org/2000/svg">
<path d="M6 20C5.16667 20 4.45834 19.7083 3.875 19.125C3.29167 18.5417 3 17.8333 3 17V9C3 8.71667 3.096 8.47933 3.288 8.288C3.48 8.09667 3.71734 8.00067 4 8H20C20.2833 8 20.521 8.096 20.713 8.288C20.905 8.48 21.0007 8.71733 21 9V17C21 17.8333 20.7083 18.5417 20.125 19.125C19.5417 19.7083 18.8333 20 18 20H6ZM9 5V4C9 3.71667 9.096 3.47933 9.288 3.288C9.48 3.09667 9.71734 3.00067 10 3H14C14.2833 3 14.521 3.096 14.713 3.288C14.905 3.48 15.0007 3.71733 15 4V5H20C20.2833 5 20.521 5.096 20.713 5.288C20.905 5.48 21.0007 5.71733 21 6C20.9993 6.28267 20.9033 6.52033 20.712 6.713C20.5207 6.90567 20.2833 7.00133 20 7H4C3.71667 7 3.47934 6.904 3.288 6.712C3.09667 6.52 3.00067 6.28267 3 6C2.99934 5.71733 3.09534 5.48 3.288 5.288C3.48067 5.096 3.718 5 4 5H9Z" fill="black"/>
</svg>
